<?xml version="1.0" encoding="iso-8859-1"?>
<!-- Generator: Adobe Illustrator 19.0.0, SVG Export Plug-In . SVG Version: 6.00 Build 0)  -->
<svg version="1.1" id="Layer_1" xmlns="http://www.w3.org/2000/svg" xmlns:xlink="http://www.w3.org/1999/xlink" x="0px" y="0px"
	 viewBox="0 0 330 330" style="enable-background:new 0 0 330 330; fill: #ff9c38;" xml:space="preserve">
<g id="XMLID_459_">
	<path id="XMLID_460_" d="M15,240h100.01c19.294,0,34.99,15.702,34.99,35.003C150,288.786,138.789,300,125.009,300
		c-9.369,0-16.991-7.626-16.991-16.999c0-8.284-6.716-15-15-15s-15,6.716-15,15c0,25.915,21.08,46.999,46.991,46.999
		C155.331,330,180,305.328,180,275.003C180,239.16,150.846,210,115.01,210H15c-8.284,0-15,6.716-15,15S6.716,240,15,240z"/>
	<path id="XMLID_461_" d="M15,170h222.222C288.38,170,330,128.379,330,77.22C330,34.641,295.358,0,252.778,0
		c-35.72,0-64.779,29.059-64.779,64.776c0,30.229,24.593,54.823,54.82,54.823c8.284,0,15-6.716,15-15s-6.716-15-15-15
		c-13.686,0-24.82-11.136-24.82-24.823c0-19.176,15.602-34.776,34.779-34.776C278.816,30,300,51.183,300,77.22
		c0,34.617-28.162,62.78-62.778,62.78H15c-8.284,0-15,6.716-15,15S6.716,170,15,170z"/>
</g>
<g>
</g>
<g>
</g>
<g>
</g>
<g>
</g>
<g>
</g>
<g>
</g>
<g>
</g>
<g>
</g>
<g>
</g>
<g>
</g>
<g>
</g>
<g>
</g>
<g>
</g>
<g>
</g>
<g>
</g>
</svg>
